<?xml version="1.0" encoding="utf-8"?>
<!-- Generator: Adobe Illustrator 21.0.0, SVG Export Plug-In . SVG Version: 6.00 Build 0)  -->
<svg version="1.1" id="图层_1" xmlns="http://www.w3.org/2000/svg" xmlns:xlink="http://www.w3.org/1999/xlink" x="0px" y="0px"
	 viewBox="0 0 32 32" style="enable-background:new 0 0 32 32;" xml:space="preserve">
<style type="text/css">
	.st0{fill:#2D374B;}
	.st1{fill:#28A0F0;}
	.st2{fill:#FFFFFF;}
	.st3{fill:#96BEDC;}
</style>
<path class="st0" d="M19,14.9l2-3.4l5.3,8.3l0,1.6l0-11c0-0.3-0.2-0.5-0.4-0.7l-9.6-5.5c-0.2-0.1-0.5-0.1-0.7,0c0,0-0.1,0-0.1,0l0,0
	L6.2,9.7l0,0c0,0-0.1,0-0.1,0.1c-0.2,0.1-0.3,0.3-0.3,0.5c0,0,0,0.1,0,0.1l0,8.9l5-7.7c0.6-1,2-1.3,3.3-1.3l1.5,0l-8.7,14l1,0.6
	l8.9-14.6l3.9,0l-8.8,15l3.7,2.1l0.4,0.3c0.2,0.1,0.4,0.1,0.6,0l9.7-5.6l-1.9,1.1L19,14.9z M19.8,25.7l-3.7-5.8l2.3-3.8l4.9,7.7
	L19.8,25.7z"/>
<path class="st1" d="M16.1,19.9l3.7,5.8l3.4-2l-4.9-7.7L16.1,19.9z"/>
<path class="st1" d="M26.4,21.4l0-1.6L21,11.5l-2,3.4l5.1,8.3l1.9-1.1c0.2-0.1,0.3-0.4,0.3-0.6L26.4,21.4z"/>
<path class="st2" d="M4,22.9l2.6,1.5l8.7-14l-1.5,0c-1.3,0-2.6,0.3-3.3,1.3l-5,7.7L4,22L4,22.9L4,22.9z"/>
<path class="st2" d="M20.4,10.4l-3.9,0L7.7,25l3.1,1.8l0.8-1.4L20.4,10.4z"/>
<path class="st3" d="M28,10.4c0-0.8-0.5-1.6-1.2-2l-9.7-5.6c-0.7-0.3-1.5-0.3-2.2,0c-0.1,0-9.5,5.5-9.5,5.5C5.3,8.3,5.2,8.4,5,8.5
	c-0.6,0.4-1,1.1-1,1.9V22l1.7-2.6l0-8.9c0,0,0-0.1,0-0.1c0-0.2,0.2-0.4,0.3-0.5c0,0,9.6-5.6,9.6-5.6c0.2-0.1,0.5-0.1,0.7,0L26,9.8
	c0.2,0.1,0.4,0.4,0.4,0.7v11.1c0,0.2-0.1,0.5-0.3,0.6l-1.9,1.1l-1,0.6l-3.4,2l-3.5,2c-0.2,0.1-0.4,0.1-0.6,0l-4.1-2.4l-0.8,1.4
	l3.7,2.1c0.1,0.1,0.2,0.1,0.3,0.2c0.1,0.1,0.2,0.1,0.3,0.1c0.3,0.1,0.6,0.2,1,0.2c0.3,0,0.6-0.1,0.9-0.2L27,23.4
	c0.6-0.4,0.9-1.1,1-1.9V10.4z"/>
</svg>
