<svg width="32" height="32" viewBox="0 0 32 32" fill="none" xmlns="http://www.w3.org/2000/svg">
<circle cx="16" cy="16" r="13.5" fill="#E84142"/>
<path fill-rule="evenodd" clip-rule="evenodd" d="M11.6747 21.8723H9.05476C8.50422 21.8723 8.23228 21.8723 8.06647 21.7662C7.88737 21.6501 7.77794 21.4578 7.76467 21.2455C7.75471 21.0499 7.8907 20.811 8.16264 20.3335L14.6317 8.93091C14.9069 8.44671 15.0462 8.20461 15.222 8.11507C15.411 8.0189 15.6366 8.0189 15.8256 8.11507C16.0014 8.20461 16.1407 8.44671 16.4159 8.93091L17.7458 11.2524L17.7526 11.2643C18.0499 11.7837 18.2007 12.0471 18.2665 12.3236C18.3394 12.6254 18.3394 12.9438 18.2665 13.2456C18.2002 13.5241 18.0509 13.7895 17.7491 14.3168L14.3511 20.3235L14.3423 20.3389C14.043 20.8626 13.8914 21.1281 13.6812 21.3283C13.4523 21.5473 13.1771 21.7064 12.8753 21.7961C12.6 21.8723 12.2916 21.8723 11.6747 21.8723ZM18.291 21.8723H22.0451C22.599 21.8723 22.8776 21.8723 23.0435 21.763C23.2226 21.6469 23.3353 21.4511 23.3453 21.239C23.3549 21.0497 23.2218 20.8202 22.9612 20.3704C22.9522 20.355 22.9432 20.3395 22.9341 20.3236L21.0536 17.1067L21.0322 17.0705C20.7679 16.6236 20.6346 16.398 20.4632 16.3107C20.2743 16.2145 20.052 16.2145 19.863 16.3107C19.6905 16.4003 19.5513 16.6357 19.276 17.11L17.4022 20.3269L17.3958 20.338C17.1215 20.8115 16.9844 21.0481 16.9943 21.2422C17.0076 21.4545 17.117 21.6501 17.2961 21.7662C17.4586 21.8723 17.7372 21.8723 18.291 21.8723Z" fill="white"/>
</svg>
