<?xml version="1.0" encoding="utf-8"?>
<!-- Generator: Adobe Illustrator 21.0.0, SVG Export Plug-In . SVG Version: 6.00 Build 0)  -->
<svg version="1.1" id="图层_1" xmlns="http://www.w3.org/2000/svg" xmlns:xlink="http://www.w3.org/1999/xlink" x="0px" y="0px"
	 viewBox="0 0 32 32" style="enable-background:new 0 0 32 32;" xml:space="preserve">
<style type="text/css">
	.st0{fill:#F0B90B;}
</style>
<path class="st0" d="M8.6,6.7L16,2.6l7.4,4.1l-2.7,1.5L16,5.6l-4.7,2.6L8.6,6.7z M23.4,11.9l-2.7-1.5L16,12.9l-4.7-2.6l-2.7,1.5v3
	l4.7,2.6v5.2l2.7,1.5l2.7-1.5v-5.2l4.7-2.6V11.9z M23.4,20.1v-3l-2.7,1.5v3L23.4,20.1z M25.3,21.2l-4.7,2.6v3l7.4-4.1v-8.2L25.3,16
	V21.2z M22.6,9.3l2.7,1.5v3l2.7-1.5v-3l-2.7-1.5L22.6,9.3z M13.3,24.9v3l2.7,1.5l2.7-1.5v-3L16,26.4L13.3,24.9z M8.6,20.1l2.7,1.5
	v-3l-2.7-1.5V20.1z M13.3,9.3l2.7,1.5l2.7-1.5L16,7.8L13.3,9.3z M6.7,10.8l2.7-1.5L6.7,7.8L4,9.3v3l2.7,1.5V10.8z M6.7,16L4,14.5
	v8.2l7.4,4.1v-3l-4.7-2.6V16z"/>
</svg>
