<?xml version="1.0" encoding="utf-8"?>
<!-- Generator: Adobe Illustrator 21.0.0, SVG Export Plug-In . SVG Version: 6.00 Build 0)  -->
<svg version="1.1" id="图层_1" xmlns="http://www.w3.org/2000/svg" xmlns:xlink="http://www.w3.org/1999/xlink" x="0px" y="0px"
	 viewBox="0 0 32 32" style="enable-background:new 0 0 32 32;" xml:space="preserve">
<style type="text/css">
	.st0{fill:#27A577;}
</style>
<path class="st0" d="M10,16c2.8,0,5.2-1.8,6-4.4c0.8,2.5,3.2,4.4,6,4.4c3.5,0,6.2-2.8,6.2-6.3c0-3.5-2.8-6.2-6.2-6.2
	c-2.8,0-5.2,1.8-6,4.4c-0.8-2.5-3.2-4.4-6-4.4c-3.5,0-6.2,2.8-6.2,6.2C3.8,13.2,6.6,16,10,16z M16,24.1c-0.8,2.5-3.2,4.4-6,4.4
	c-3.5,0-6.2-2.8-6.2-6.2c0-3.5,2.8-6.2,6.2-6.2c2.8,0,5.2,1.8,6,4.4c0.8-2.5,3.2-4.4,6-4.4c3.5,0,6.2,2.8,6.2,6.2
	c0,3.5-2.8,6.2-6.2,6.2C19.2,28.5,16.8,26.7,16,24.1z"/>
</svg>
