<?xml version="1.0" encoding="utf-8"?>
<!-- Generator: Adobe Illustrator 21.0.0, SVG Export Plug-In . SVG Version: 6.00 Build 0)  -->
<svg version="1.1" id="_1" xmlns="http://www.w3.org/2000/svg" xmlns:xlink="http://www.w3.org/1999/xlink" x="0px" y="0px"
	 viewBox="0 0 32 32" style="enable-background:new 0 0 32 32;" xml:space="preserve">
<style type="text/css">
	.st0{fill:url(#SVGID_1_);}
</style>
<linearGradient id="SVGID_1_" gradientUnits="userSpaceOnUse" x1="24.6799" y1="28.2837" x2="7.5874" y2="6.0638" gradientTransform="matrix(1 0 0 -1 0 33)">
	<stop  offset="0" style="stop-color:#F1D961"/>
	<stop  offset="1" style="stop-color:#CDA146"/>
</linearGradient>
<path class="st0" d="M22.6,13.5c-1.3,0-2.5,0.4-3.5,1c-1,0.7-1.9,1.7-2.3,2.8c-0.5,1.1-0.6,2.4-0.4,3.6c0.2,1.2,0.8,2.3,1.7,3.2
	c0.9,0.9,2,1.5,3.3,1.7c1.2,0.2,2.5,0.1,3.7-0.4c1.2-0.5,2.2-1.3,2.9-2.3S29,21,29,19.8c0-1.7-0.7-3.2-1.9-4.4
	C25.9,14.2,24.3,13.5,22.6,13.5L22.6,13.5z M22.6,23.4c-0.7,0-1.5-0.2-2.1-0.6c-0.6-0.4-1.1-1-1.4-1.7c-0.3-0.7-0.4-1.4-0.2-2.1
	c0.1-0.7,0.5-1.4,1-1.9c0.5-0.5,1.2-0.9,1.9-1c0.7-0.1,1.5-0.1,2.2,0.2c0.7,0.3,1.3,0.8,1.7,1.4c0.4,0.6,0.6,1.3,0.6,2
	c0,1-0.4,1.9-1.1,2.6C24.6,23,23.6,23.4,22.6,23.4L22.6,23.4z M24,19.8c0,0.3-0.1,0.5-0.2,0.7c-0.2,0.2-0.4,0.4-0.6,0.5v0.9h-0.9V21
	c-0.3-0.1-0.5-0.3-0.6-0.5c-0.2-0.2-0.2-0.5-0.2-0.8c0-0.3,0.1-0.7,0.4-0.9c0.2-0.2,0.6-0.4,0.9-0.4c0.3,0,0.7,0.1,0.9,0.4
	C23.8,19.1,24,19.4,24,19.8z M14.8,20.7c0,1.4-0.6,2.8-1.6,3.8c-1,1-2.4,1.6-3.8,1.6c-1.4,0-2.8-0.6-3.8-1.6c-1-1-1.6-2.4-1.6-3.8
	h2.6c0,0.7,0.3,1.4,0.8,2c0.5,0.5,1.3,0.8,2,0.8c0.8,0,1.5-0.3,2-0.8c0.5-0.5,0.8-1.2,0.8-2H14.8z M9.4,6C8.1,6,6.9,6.4,5.8,7.1
	C4.8,7.7,4,8.7,3.5,9.9C3,11,2.9,12.3,3.1,13.5c0.2,1.2,0.9,2.3,1.7,3.2c0.9,0.9,2,1.5,3.3,1.7c1.2,0.2,2.5,0.1,3.7-0.4
	c1.2-0.5,2.2-1.3,2.9-2.3c0.7-1,1.1-2.2,1.1-3.5c0-1.7-0.7-3.2-1.9-4.4S11,6,9.4,6L9.4,6z M9.4,15.9c-0.7,0-1.5-0.2-2.1-0.6
	c-0.6-0.4-1.1-1-1.4-1.7c-0.3-0.7-0.4-1.4-0.2-2.1c0.1-0.7,0.5-1.4,1-1.9c0.5-0.5,1.2-0.9,1.9-1s1.5-0.1,2.2,0.2
	c0.7,0.3,1.3,0.8,1.7,1.4c0.4,0.6,0.6,1.3,0.6,2.1c0,1-0.4,1.9-1.1,2.6C11.3,15.5,10.3,15.9,9.4,15.9L9.4,15.9z M10.7,12.4
	c0,0.2-0.1,0.5-0.2,0.7c-0.1,0.2-0.3,0.4-0.5,0.5c-0.2,0.1-0.5,0.2-0.7,0.1c-0.2,0-0.5-0.1-0.7-0.2c-0.2-0.1-0.4-0.3-0.4-0.5
	c-0.1-0.2-0.1-0.5-0.1-0.7c0-0.2,0.1-0.5,0.3-0.6c0.2-0.2,0.4-0.3,0.6-0.4v-0.9h0.9v0.9c0.3,0.1,0.5,0.2,0.6,0.5
	C10.6,11.9,10.7,12.1,10.7,12.4L10.7,12.4z M28.1,11.3c0,0.9-0.2,1.8-0.7,2.6c-0.7-0.5-1.5-1-2.3-1.2c0.2-0.4,0.3-0.8,0.3-1.2
	s-0.1-0.8-0.2-1.2c-0.2-0.4-0.4-0.7-0.8-1c-0.3-0.3-0.7-0.5-1.1-0.6c-0.4-0.1-0.9-0.1-1.3,0s-0.8,0.3-1.2,0.5
	c-0.3,0.3-0.6,0.6-0.8,1c-0.2,0.4-0.3,0.8-0.3,1.2c0,0.5,0.1,0.9,0.3,1.3c-0.8,0.3-1.6,0.7-2.3,1.2c-0.4-0.8-0.7-1.7-0.7-2.6
	c0-1.4,0.6-2.8,1.6-3.8S21.2,6,22.6,6c1.4,0,2.8,0.6,3.8,1.6C27.5,8.6,28.1,9.9,28.1,11.3L28.1,11.3z"/>
</svg>
