<?xml version="1.0" encoding="utf-8"?>
<!-- Generator: Adobe Illustrator 21.0.0, SVG Export Plug-In . SVG Version: 6.00 Build 0)  -->
<svg version="1.1" id="图层_1" xmlns="http://www.w3.org/2000/svg" xmlns:xlink="http://www.w3.org/1999/xlink" x="0px" y="0px"
	 viewBox="0 0 32 32" style="enable-background:new 0 0 32 32;" xml:space="preserve">
<style type="text/css">
	.st0{fill:#627EEA;}
	.st1{fill:#FFFFFF;fill-opacity:0.602;}
	.st2{fill:#FFFFFF;}
	.st3{fill:#FFFFFF;fill-opacity:0.2;}
</style>
<path class="st0" d="M16,29.5c7.5,0,13.5-6,13.5-13.5c0-7.5-6-13.5-13.5-13.5C8.5,2.5,2.5,8.5,2.5,16C2.5,23.5,8.5,29.5,16,29.5z"/>
<path class="st1" d="M16,7v6.7l5.6,2.5L16,7z"/>
<path class="st2" d="M16,7l-5.6,9.2l5.6-2.5V7z"/>
<path class="st1" d="M16,20.5V25l5.6-7.8L16,20.5z"/>
<path class="st2" d="M16,25v-4.5l-5.6-3.3L16,25z"/>
<path class="st3" d="M16,19.4l5.6-3.3L16,13.7V19.4z"/>
<path class="st1" d="M10.4,16.2l5.6,3.3v-5.8L10.4,16.2z"/>
</svg>
