<svg width="32" height="32" viewBox="0 0 32 32" fill="none" xmlns="http://www.w3.org/2000/svg">
<path d="M16 29.5C23.4558 29.5 29.5 23.4558 29.5 16C29.5 8.54416 23.4558 2.5 16 2.5C8.54416 2.5 2.5 8.54416 2.5 16C2.5 23.4558 8.54416 29.5 16 29.5Z" fill="#1969FF"/>
<path d="M15.1731 6.682C15.6349 6.43933 16.3375 6.43933 16.7993 6.682L21.5114 9.15826C21.7896 9.30441 21.9423 9.5222 21.9697 9.74702H21.9741V22.194C21.968 22.4392 21.8139 22.6828 21.5114 22.8417L16.7993 25.318C16.3375 25.5607 15.6349 25.5607 15.1731 25.318L10.4609 22.8417C10.1598 22.6835 10.0153 22.4381 10.0081 22.194C10.0074 22.1699 10.0073 22.1499 10.008 22.1333L10.008 9.82697C10.0075 9.81349 10.0075 9.80003 10.0078 9.78662L10.0081 9.74702L10.0102 9.747C10.0312 9.51972 10.177 9.3075 10.4609 9.15826L15.1731 6.682ZM21.2323 16.6911L16.7993 19.0207C16.3375 19.2634 15.6349 19.2634 15.1731 19.0207L10.7497 16.6963V22.1693L15.1731 24.4815C15.4228 24.6144 15.6821 24.7438 15.9356 24.7603L15.9862 24.7619C16.2503 24.7628 16.5068 24.6294 16.7668 24.5031L21.2323 22.1494V16.6911ZM9.2417 21.9234C9.2417 22.4001 9.2974 22.7136 9.40801 22.9345C9.49968 23.1175 9.63723 23.2574 9.88839 23.4276L9.90273 23.4373C9.95785 23.4742 10.0186 23.513 10.0925 23.5584L10.1796 23.6115L10.4473 23.7723L10.0634 24.4038L9.76384 24.2237L9.71349 24.193C9.62687 24.1397 9.55508 24.0941 9.48812 24.0491C8.77231 23.5689 8.50535 23.0456 8.50008 21.9565L8.5 21.9234H9.2417ZM15.6152 13.3549C15.5809 13.3667 15.5488 13.3802 15.5195 13.3956L10.8073 15.8719C10.8024 15.8745 10.7977 15.8771 10.7932 15.8796L10.7892 15.8819L10.7966 15.8861L10.8073 15.8919L15.5195 18.3682C15.5488 18.3836 15.5809 18.3971 15.6152 18.4089V13.3549ZM16.3572 13.3549V18.4089C16.3915 18.3971 16.4236 18.3836 16.4529 18.3682L21.165 15.8919C21.17 15.8893 21.1747 15.8868 21.1792 15.8842L21.1832 15.8819L21.1758 15.8777L21.165 15.8719L16.4529 13.3956C16.4236 13.3802 16.3915 13.3667 16.3572 13.3549ZM21.2323 10.63L17.0053 12.8513L21.2323 15.0727V10.63ZM10.7497 10.6352V15.0675L14.967 12.8513L10.7497 10.6352ZM16.4529 7.33454C16.2079 7.20576 15.7645 7.20576 15.5195 7.33454L10.8073 9.8108C10.8024 9.8134 10.7977 9.81597 10.7932 9.81851L10.7892 9.82081L10.7966 9.82502L10.8073 9.83083L15.5195 12.3071C15.7645 12.4359 16.2079 12.4359 16.4529 12.3071L21.165 9.83083C21.17 9.82823 21.1747 9.82566 21.1792 9.82311L21.1832 9.82081L21.1758 9.81659L21.165 9.8108L16.4529 7.33454ZM21.9287 7.60609L22.2283 7.7861L22.2787 7.81685C22.3653 7.87005 22.4371 7.91575 22.504 7.96067C23.2198 8.44082 23.4868 8.96431 23.492 10.0533L23.4922 10.0865H22.7505C22.7505 9.60958 22.6948 9.29614 22.5842 9.07531C22.4925 8.89229 22.3549 8.75242 22.1038 8.58222L22.0894 8.57255C22.0343 8.53558 21.9736 8.49685 21.8997 8.45133L21.8125 8.39821L21.5449 8.23752L21.9287 7.60609Z" fill="white"/>
</svg>
