<svg width="81" height="32" viewBox="0 0 81 32" fill="none" xmlns="http://www.w3.org/2000/svg">
<g clip-path="url(#clip0_41182_90283)">
<path d="M16.8662 20.2273C16.4942 19.8966 16.0188 19.7106 15.5227 19.7106C14.9647 19.7106 14.4479 19.938 14.0552 20.3514C12.6084 21.9222 11.3062 22.5216 9.44595 22.5216C7.50304 22.5216 6.15953 21.9016 4.69201 20.3307C4.31997 19.938 3.78257 19.6899 3.24516 19.6899C2.7491 19.6899 2.25304 19.876 1.88099 20.2273C1.09556 20.9921 1.05422 22.2529 1.79831 23.0384C4.0306 25.4153 6.3869 26.4901 9.44595 26.4901C12.443 26.4901 14.758 25.4153 16.9696 23.0384C17.7343 22.2323 17.6723 20.9714 16.8662 20.2273Z" fill="url(#paint0_linear_41182_90283)"/>
<path d="M16.8249 16.2796C18.0691 16.2796 19.0778 15.2709 19.0778 14.0266C19.0778 12.7824 18.0691 11.7737 16.8249 11.7737C15.5806 11.7737 14.5719 12.7824 14.5719 14.0266C14.5719 15.2709 15.5806 16.2796 16.8249 16.2796Z" fill="url(#paint1_linear_41182_90283)"/>
<path d="M1.09552 15.9281C0.0413849 15.2874 -0.309993 13.9026 0.330755 12.8484L4.09257 6.58563C4.73331 5.5315 6.11816 5.18012 7.17229 5.82087C8.22643 6.46162 8.5778 7.84646 7.93706 8.90059L4.17524 15.1427C3.5345 16.2175 2.14965 16.5482 1.09552 15.9281Z" fill="url(#paint2_linear_41182_90283)"/>
<path d="M8.35052 15.9281C7.29639 15.2874 6.94501 13.9026 7.58576 12.8484L11.3476 6.58563C11.9883 5.5315 13.3732 5.18012 14.4273 5.82087C15.4814 6.46162 15.8328 7.84646 15.1921 8.90059L11.4509 15.1427C10.8102 16.2175 9.42533 16.5482 8.35052 15.9281Z" fill="url(#paint3_linear_41182_90283)"/>
<path d="M44.1705 7.9895H41.1734C41.0287 7.9895 40.884 8.03084 40.7187 8.11352C40.5533 8.19619 40.45 8.29954 40.3466 8.42356C40.3466 8.42356 36.0268 13.8182 35.9027 13.8182C35.7787 13.8182 31.4382 8.42356 31.4382 8.42356C31.3762 8.29954 31.2521 8.21686 31.0868 8.11352C30.9214 8.03084 30.7768 7.9895 30.6321 7.9895H27.635C27.4903 7.9895 27.3663 8.03084 27.263 8.13419C27.1596 8.23753 27.1183 8.36155 27.1183 8.50623V23.2434C27.1183 23.3881 27.1596 23.5121 27.263 23.6155C27.3663 23.7188 27.4903 23.7602 27.635 23.7602H30.8801C31.0248 23.7602 31.1488 23.7188 31.2521 23.6155C31.3555 23.5121 31.3968 23.3881 31.3968 23.2434V15.2238C31.3968 15.2238 35.7374 20.2257 35.9027 20.2257C36.0681 20.2257 40.4086 15.2238 40.4086 15.2238V23.2434C40.4086 23.3881 40.45 23.5121 40.5533 23.6155C40.6567 23.7188 40.7807 23.7602 40.9254 23.7602H44.1705C44.3151 23.7602 44.4392 23.7188 44.5425 23.6155C44.6459 23.5121 44.6872 23.3881 44.6872 23.2434V8.50623C44.6872 8.36155 44.6459 8.23753 44.5425 8.13419C44.4185 8.03084 44.2945 7.9895 44.1705 7.9895Z" fill="white"/>
<path d="M61.3465 7.9895H58.1015C57.9568 7.9895 57.8328 8.03084 57.7294 8.13419C57.6261 8.23753 57.5847 8.36155 57.5847 8.50623V17.2493C57.5847 17.8074 57.5021 18.2828 57.316 18.6342C57.13 19.0062 56.9233 19.2956 56.6546 19.5023C56.3859 19.709 56.1172 19.8537 55.8072 19.9364C55.4971 20.019 55.2284 20.0604 54.9804 20.0604C54.7324 20.0604 54.4637 20.019 54.1536 19.9364C53.8436 19.8537 53.5749 19.709 53.3062 19.5023C53.0375 19.2956 52.8101 19.0062 52.6448 18.6342C52.4588 18.2621 52.3761 17.8074 52.3761 17.2493V8.50623C52.3761 8.36155 52.3347 8.23753 52.2314 8.13419C52.128 8.03084 52.004 7.9895 51.8593 7.9895H48.6143C48.4696 7.9895 48.3456 8.03084 48.2422 8.13419C48.1389 8.23753 48.0975 8.36155 48.0975 8.50623V17.2493C48.0975 18.2621 48.2629 19.1923 48.5936 20.0397C48.9243 20.8665 49.3997 21.5899 49.9991 22.1686C50.5985 22.768 51.3219 23.2228 52.1694 23.5328C53.0168 23.8635 53.9469 24.0082 55.0011 24.0082C56.0345 24.0082 56.9853 23.8428 57.8328 23.5328C58.6802 23.2021 59.4036 22.7474 60.003 22.1686C60.6025 21.5692 61.0779 20.8665 61.3879 20.0397C61.7186 19.2129 61.8633 18.2828 61.8633 17.2493V8.50623C61.8633 8.36155 61.8219 8.23753 61.7186 8.13419C61.6153 8.03084 61.4912 7.9895 61.3465 7.9895Z" fill="white"/>
<path d="M74.7816 15.9265L80.569 8.56824C80.755 8.32021 80.5897 7.9895 80.2796 7.9895H76.8899C76.4351 7.9895 76.0011 8.19619 75.7117 8.54757L72.3013 12.8261L68.8908 8.54757C68.6015 8.19619 68.1674 7.9895 67.7127 7.9895H64.3229C64.0129 7.9895 63.8475 8.34088 64.0336 8.56824L69.821 15.9265L64.0542 23.1608C63.8682 23.4088 64.0336 23.7602 64.3436 23.7602H67.9194C68.3741 23.7602 68.8082 23.5535 69.0975 23.1814L72.3013 19.0889L75.505 23.1814C75.7944 23.5535 76.2284 23.7602 76.6832 23.7602H80.2589C80.569 23.7602 80.7343 23.4088 80.5483 23.1608L74.7816 15.9265Z" fill="white"/>
</g>
<defs>
<linearGradient id="paint0_linear_41182_90283" x1="10.9107" y1="23.2448" x2="-0.423162" y2="11.6865" gradientUnits="userSpaceOnUse">
<stop stop-color="#5ACEFF"/>
<stop offset="1" stop-color="#00EEEA"/>
</linearGradient>
<linearGradient id="paint1_linear_41182_90283" x1="18.4008" y1="15.6426" x2="8.0279" y2="5.06425" gradientUnits="userSpaceOnUse">
<stop stop-color="#5ACEFF"/>
<stop offset="1" stop-color="#00EEEA"/>
</linearGradient>
<linearGradient id="paint2_linear_41182_90283" x1="13.5124" y1="20.436" x2="3.13949" y2="9.8577" gradientUnits="userSpaceOnUse">
<stop stop-color="#5ACEFF"/>
<stop offset="1" stop-color="#00EEEA"/>
</linearGradient>
<linearGradient id="paint3_linear_41182_90283" x1="17.2186" y1="16.8019" x2="6.84568" y2="6.22356" gradientUnits="userSpaceOnUse">
<stop stop-color="#5ACEFF"/>
<stop offset="1" stop-color="#00EEEA"/>
</linearGradient>
<clipPath id="clip0_41182_90283">
<rect width="80.6309" height="21" fill="white" transform="translate(0 5.5)"/>
</clipPath>
</defs>
</svg>
