<svg width="20" height="21" viewBox="0 0 20 21" fill="none" xmlns="http://www.w3.org/2000/svg">
<path d="M16.8563 14.7274C16.4842 14.3967 16.0089 14.2107 15.5128 14.2107C14.9547 14.2107 14.438 14.438 14.0453 14.8514C12.5984 16.4223 11.2963 17.0217 9.43602 17.0217C7.4931 17.0217 6.1496 16.4016 4.68208 14.8308C4.31003 14.438 3.77263 14.19 3.23523 14.19C2.73917 14.19 2.2431 14.376 1.87106 14.7274C1.08562 15.4922 1.04429 16.753 1.78838 17.5384C4.02066 19.9154 6.37696 20.9902 9.43602 20.9902C12.4331 20.9902 14.748 19.9154 16.9596 17.5384C17.7244 16.7323 17.6624 15.4715 16.8563 14.7274Z" fill="url(#paint0_linear_1403_57325)"/>
<path d="M16.815 10.7795C18.0592 10.7795 19.0679 9.77085 19.0679 8.52657C19.0679 7.2823 18.0592 6.27362 16.815 6.27362C15.5707 6.27362 14.562 7.2823 14.562 8.52657C14.562 9.77085 15.5707 10.7795 16.815 10.7795Z" fill="url(#paint1_linear_1403_57325)"/>
<path d="M1.08563 10.4281C0.0314972 9.7874 -0.319881 8.40256 0.320867 7.34843L4.08268 1.08563C4.72343 0.0314972 6.10827 -0.319881 7.1624 0.320867C8.21654 0.961615 8.56792 2.34646 7.92717 3.40059L4.16536 9.64272C3.52461 10.7175 2.13977 11.0482 1.08563 10.4281Z" fill="url(#paint2_linear_1403_57325)"/>
<path d="M8.34054 10.4281C7.28641 9.7874 6.93503 8.40256 7.57578 7.34843L11.3376 1.08563C11.9783 0.0314972 13.3632 -0.319881 14.4173 0.320867C15.4715 0.961615 15.8228 2.34646 15.1821 3.40059L11.4409 9.64272C10.8002 10.7175 9.41535 11.0482 8.34054 10.4281Z" fill="url(#paint3_linear_1403_57325)"/>
<defs>
<linearGradient id="paint0_linear_1403_57325" x1="10.9008" y1="17.7449" x2="-0.433093" y2="6.18658" gradientUnits="userSpaceOnUse">
<stop stop-color="#5ACEFF"/>
<stop offset="1" stop-color="#00EEEA"/>
</linearGradient>
<linearGradient id="paint1_linear_1403_57325" x1="18.391" y1="10.1425" x2="8.01801" y2="-0.435818" gradientUnits="userSpaceOnUse">
<stop stop-color="#5ACEFF"/>
<stop offset="1" stop-color="#00EEEA"/>
</linearGradient>
<linearGradient id="paint2_linear_1403_57325" x1="13.5025" y1="14.936" x2="3.1296" y2="4.3577" gradientUnits="userSpaceOnUse">
<stop stop-color="#5ACEFF"/>
<stop offset="1" stop-color="#00EEEA"/>
</linearGradient>
<linearGradient id="paint3_linear_1403_57325" x1="17.2086" y1="11.3019" x2="6.8357" y2="0.723565" gradientUnits="userSpaceOnUse">
<stop stop-color="#5ACEFF"/>
<stop offset="1" stop-color="#00EEEA"/>
</linearGradient>
</defs>
</svg>
