<svg width="32" height="32" viewBox="0 0 32 32" fill="none" xmlns="http://www.w3.org/2000/svg">
<path d="M27.6006 4.0918L17.5421 11.5343L19.4126 7.14821L27.6006 4.0918Z" fill="#E17726"/>
<path fill-rule="evenodd" clip-rule="evenodd" d="M27.7114 4.03176C27.7413 4.08696 27.7261 4.1558 27.6756 4.19316L17.6171 11.6357C17.5714 11.6695 17.5087 11.6685 17.4641 11.6333C17.4194 11.5981 17.4039 11.5373 17.4262 11.485L19.2967 7.09884C19.3102 7.06709 19.3362 7.04228 19.3686 7.03021L27.5566 3.9738C27.6154 3.95183 27.6814 3.97655 27.7114 4.03176ZM19.5073 7.24743L17.84 11.1573L26.8062 4.52291L19.5073 7.24743Z" fill="#E17726"/>
<path d="M4.39954 4.0918L14.3684 11.6038L12.5876 7.1482L4.39954 4.0918Z" fill="#E27625"/>
<path fill-rule="evenodd" clip-rule="evenodd" d="M4.28897 4.03127C4.31906 3.97638 4.38489 3.9519 4.44353 3.9738L12.6316 7.0302C12.6649 7.04262 12.6914 7.06851 12.7045 7.10149L14.4854 11.5571C14.5064 11.6096 14.4898 11.6696 14.4449 11.704C14.4 11.7383 14.3377 11.7385 14.2925 11.7045L4.32363 4.1925C4.27363 4.15483 4.25887 4.08616 4.28897 4.03127ZM5.16814 4.5133L14.0839 11.2317L12.4912 7.24682L5.16814 4.5133Z" fill="#E27625"/>
<path d="M23.9789 21.3486L21.3026 25.4371L27.0332 27.0149L28.6749 21.438L23.9789 21.3486Z" fill="#E27625"/>
<path fill-rule="evenodd" clip-rule="evenodd" d="M23.8735 21.2797C23.8972 21.2434 23.938 21.2219 23.9813 21.2227L28.6773 21.3121C28.7166 21.3128 28.7533 21.3318 28.7765 21.3635C28.7998 21.3952 28.8069 21.4359 28.7958 21.4736L27.1542 27.0505C27.1347 27.1165 27.0661 27.1547 26.9998 27.1365L21.2692 25.5586C21.2304 25.5479 21.199 25.5193 21.1848 25.4817C21.1705 25.444 21.1752 25.4018 21.1972 25.3681L23.8735 21.2797ZM24.0462 21.476L21.5028 25.3615L26.9473 26.8606L28.5074 21.5609L24.0462 21.476Z" fill="#E27625"/>
<path d="M3.33484 21.438L4.96647 27.0149L10.6872 25.4371L8.02081 21.3486L3.33484 21.438Z" fill="#E27625"/>
<path fill-rule="evenodd" clip-rule="evenodd" d="M8.01845 21.2227C8.06188 21.2219 8.10268 21.2434 8.12641 21.2798L10.7928 25.3683C10.8147 25.402 10.8193 25.4441 10.8051 25.4817C10.7908 25.5194 10.7595 25.5479 10.7207 25.5586L5.00001 27.1364C4.93366 27.1547 4.86489 27.1164 4.84556 27.0503L3.21393 21.4734C3.20291 21.4358 3.21008 21.3951 3.23332 21.3634C3.25656 21.3318 3.29322 21.3128 3.33248 21.3121L8.01845 21.2227ZM3.50212 21.5609L5.05262 26.8605L10.4874 25.3615L7.95344 21.476L3.50212 21.5609Z" fill="#E27625"/>
<path d="M10.3787 14.4419L8.78687 16.8434L14.4578 17.1014L14.2688 10.9985L10.3787 14.4419Z" fill="#E27625"/>
<path fill-rule="evenodd" clip-rule="evenodd" d="M14.3188 10.8829C14.3636 10.9023 14.3933 10.9458 14.3948 10.9947L14.5838 17.0976C14.5849 17.1326 14.5713 17.1666 14.5463 17.1912C14.5213 17.2158 14.4872 17.2289 14.4521 17.2274L8.78118 16.9693C8.73584 16.9673 8.69511 16.941 8.67455 16.9005C8.654 16.8601 8.65679 16.8117 8.68187 16.7738L10.2737 14.3723C10.2797 14.3632 10.287 14.3549 10.2952 14.3476L14.1853 10.9042C14.2219 10.8718 14.2739 10.8635 14.3188 10.8829ZM10.4746 14.5254L9.01484 16.7277L14.3277 16.9694L14.1512 11.271L10.4746 14.5254Z" fill="#E27625"/>
<path d="M21.621 14.4421L17.6713 10.9292L17.542 17.1016L23.2129 16.8436L21.621 14.4421Z" fill="#E27625"/>
<path fill-rule="evenodd" clip-rule="evenodd" d="M17.6209 10.8137C17.6659 10.7941 17.7183 10.8024 17.755 10.8351L21.7047 14.3479C21.7128 14.3552 21.72 14.3634 21.726 14.3725L23.3178 16.774C23.3429 16.8118 23.3457 16.8602 23.3251 16.9007C23.3046 16.9411 23.2639 16.9674 23.2185 16.9695L17.5476 17.2275C17.5128 17.2291 17.4789 17.2162 17.4539 17.1918C17.4289 17.1674 17.4152 17.1338 17.4159 17.099L17.5453 10.9266C17.5463 10.8775 17.5758 10.8334 17.6209 10.8137ZM17.7915 11.2049L17.6707 16.9696L22.9849 16.7278L21.525 14.5254L17.7915 11.2049Z" fill="#E27625"/>
<path d="M10.6873 25.4369L14.1196 23.7798L11.1648 21.4775L10.6873 25.4369Z" fill="#E27625"/>
<path fill-rule="evenodd" clip-rule="evenodd" d="M11.1164 21.3612C11.1584 21.3438 11.2065 21.3503 11.2423 21.3782L14.1971 23.6804C14.2315 23.7072 14.2496 23.7498 14.245 23.7932C14.2404 23.8365 14.2137 23.8744 14.1745 23.8933L10.7421 25.5505C10.7006 25.5705 10.6515 25.5663 10.614 25.5395C10.5765 25.5127 10.5567 25.4676 10.5622 25.4219L11.0398 21.4625C11.0452 21.4174 11.0745 21.3787 11.1164 21.3612ZM11.2633 21.714L10.84 25.2233L13.8822 23.7545L11.2633 21.714Z" fill="#E27625"/>
<path d="M17.8804 23.7798L21.3028 25.4369L20.8352 21.4775L17.8804 23.7798Z" fill="#E27625"/>
<path fill-rule="evenodd" clip-rule="evenodd" d="M20.8838 21.3613C20.9258 21.3788 20.955 21.4176 20.9604 21.4628L21.428 25.4222C21.4334 25.4679 21.4134 25.5129 21.3759 25.5396C21.3384 25.5663 21.2893 25.5705 21.2479 25.5504L17.8255 23.8932C17.7863 23.8743 17.7597 23.8364 17.7551 23.7931C17.7505 23.7498 17.7686 23.7072 17.803 23.6804L20.7578 21.3782C20.7936 21.3502 20.8418 21.3438 20.8838 21.3613ZM18.1177 23.7547L21.1507 25.2233L20.7363 21.7144L18.1177 23.7547Z" fill="#E27625"/>
<path d="M21.3028 25.4372L17.8804 23.78L18.1589 26.0028L18.129 26.9456L21.3028 25.4372Z" fill="#D5BFB2"/>
<path fill-rule="evenodd" clip-rule="evenodd" d="M17.807 23.6777C17.8445 23.6507 17.8938 23.6465 17.9353 23.6667L21.3577 25.3238C21.4014 25.345 21.429 25.3892 21.4288 25.4377C21.4287 25.4862 21.4007 25.5303 21.3569 25.5511L18.1832 27.0594C18.1435 27.0783 18.0968 27.0751 18.0601 27.0511C18.0233 27.027 18.0017 26.9855 18.0031 26.9416L18.0327 26.0088L17.7554 23.7957C17.7496 23.7499 17.7694 23.7046 17.807 23.6777ZM18.0343 23.9946L18.284 25.9872C18.2848 25.9937 18.2851 26.0003 18.2849 26.0069L18.2616 26.7431L21.0115 25.4362L18.0343 23.9946Z" fill="#D5BFB2"/>
<path d="M10.6873 25.4372L13.871 26.9456L13.851 26.0028L14.1196 23.78L10.6873 25.4372Z" fill="#D5BFB2"/>
<path fill-rule="evenodd" clip-rule="evenodd" d="M14.1929 23.6776C14.2304 23.7043 14.2503 23.7495 14.2448 23.7952L13.9773 26.0091L13.997 26.943C13.9979 26.9866 13.9762 27.0277 13.9395 27.0514C13.9028 27.0751 13.8565 27.0782 13.817 27.0595L10.6333 25.5511C10.5895 25.5304 10.5615 25.4862 10.5613 25.4377C10.5611 25.3892 10.5888 25.3449 10.6325 25.3238L14.0649 23.6666C14.1064 23.6466 14.1555 23.6508 14.1929 23.6776ZM10.9794 25.4362L13.7407 26.7444L13.7251 26.0055C13.725 25.9996 13.7253 25.9937 13.726 25.9878L13.9669 23.9938L10.9794 25.4362Z" fill="#D5BFB2"/>
<path d="M13.9305 20.0091L11.0851 19.1756L13.0948 18.2527L13.9305 20.0091Z" fill="#233447"/>
<path fill-rule="evenodd" clip-rule="evenodd" d="M13.0422 18.138C13.1049 18.1092 13.179 18.1361 13.2086 18.1984L14.0444 19.9548C14.0657 19.9997 14.0587 20.0529 14.0265 20.0907C13.9942 20.1285 13.9428 20.1438 13.8951 20.1299L11.0497 19.2963C10.9992 19.2816 10.9633 19.237 10.9594 19.1846C10.9556 19.1321 10.9848 19.0828 11.0325 19.0609L13.0422 18.138ZM11.4441 19.1492L13.6958 19.8089L13.0344 18.4189L11.4441 19.1492Z" fill="#233447"/>
<path d="M18.0693 20.0091L18.9051 18.2527L20.9247 19.1756L18.0693 20.0091Z" fill="#233447"/>
<path fill-rule="evenodd" clip-rule="evenodd" d="M18.7913 18.1984C18.8209 18.1362 18.8949 18.1093 18.9575 18.1379L20.9771 19.0608C21.025 19.0827 21.0543 19.132 21.0505 19.1845C21.0467 19.237 21.0106 19.2816 20.9601 19.2964L18.1047 20.1299C18.057 20.1438 18.0056 20.1284 17.9734 20.0906C17.9412 20.0528 17.9342 19.9996 17.9556 19.9548L18.7913 18.1984ZM18.9656 18.4187L18.304 19.8092L20.5645 19.1493L18.9656 18.4187Z" fill="#233447"/>
<path d="M10.6872 25.4371L11.1847 21.3486L8.02087 21.438L10.6872 25.4371Z" fill="#CC6228"/>
<path fill-rule="evenodd" clip-rule="evenodd" d="M11.2779 21.2638C11.3026 21.2909 11.3142 21.3275 11.3098 21.3639L10.8123 25.4523C10.8059 25.5047 10.7677 25.5475 10.7164 25.5597C10.6651 25.5719 10.6116 25.5509 10.5824 25.507L7.91607 21.508C7.89064 21.4698 7.88792 21.4209 7.90898 21.3802C7.93003 21.3394 7.97154 21.3134 8.01736 21.3121L11.1811 21.2227C11.2178 21.2217 11.2531 21.2367 11.2779 21.2638ZM8.25207 21.5576L10.6032 25.084L11.0419 21.4788L8.25207 21.5576Z" fill="#CC6228"/>
<path d="M20.8152 21.3486L21.3027 25.4371L23.979 21.438L20.8152 21.3486Z" fill="#CC6228"/>
<path fill-rule="evenodd" clip-rule="evenodd" d="M20.7222 21.2637C20.7469 21.2366 20.7822 21.2217 20.8188 21.2227L23.9826 21.3121C24.0284 21.3134 24.07 21.3395 24.091 21.3803C24.112 21.421 24.1093 21.47 24.0837 21.5081L21.4075 25.5072C21.3782 25.551 21.3246 25.572 21.2733 25.5597C21.2221 25.5474 21.1839 25.5044 21.1776 25.452L20.6901 21.3636C20.6858 21.3272 20.6975 21.2907 20.7222 21.2637ZM20.9577 21.4788L21.3875 25.0839L23.7474 21.5576L20.9577 21.4788Z" fill="#CC6228"/>
<path d="M23.2129 16.8433L17.542 17.1013L18.0693 20.0089L18.905 18.2524L20.9247 19.1753L23.2129 16.8433Z" fill="#CC6228"/>
<path fill-rule="evenodd" clip-rule="evenodd" d="M23.3279 16.7919C23.349 16.8392 23.339 16.8946 23.3027 16.9316L21.0145 19.2636C20.9774 19.3015 20.9205 19.312 20.8722 19.2899L18.9654 18.4186L18.183 20.0631C18.1595 20.1125 18.1068 20.1411 18.0526 20.1338C17.9983 20.1266 17.955 20.0852 17.9452 20.0314L17.4179 17.1238C17.4114 17.088 17.4207 17.0512 17.4434 17.0228C17.466 16.9943 17.4999 16.9771 17.5362 16.9754L23.2071 16.7174C23.2588 16.7151 23.3067 16.7446 23.3279 16.7919ZM17.6916 17.2206L18.1234 19.6017L18.7911 18.1983C18.8207 18.1361 18.8947 18.1092 18.9573 18.1378L20.8965 19.024L22.8984 16.9838L17.6916 17.2206Z" fill="#CC6228"/>
<path d="M11.0851 19.1753L13.0948 18.2524L13.9305 20.0089L14.4578 17.1013L8.78687 16.8433L11.0851 19.1753Z" fill="#CC6228"/>
<path fill-rule="evenodd" clip-rule="evenodd" d="M8.6718 16.792C8.69289 16.7447 8.74084 16.7151 8.79264 16.7174L14.4636 16.9754C14.4999 16.9771 14.5337 16.9943 14.5564 17.0228C14.579 17.0512 14.5883 17.088 14.5818 17.1238L14.0546 20.0314C14.0448 20.0852 14.0014 20.1266 13.9472 20.1338C13.893 20.1411 13.8403 20.1125 13.8168 20.0631L13.0344 18.4188L11.1377 19.2898C11.0895 19.312 11.0326 19.3016 10.9954 19.2638L8.69715 16.9318C8.66076 16.8948 8.6507 16.8394 8.6718 16.792ZM9.1023 16.9838L11.1128 19.0239L13.0422 18.1379C13.1049 18.1091 13.179 18.136 13.2086 18.1983L13.8763 19.6017L14.3081 17.2206L9.1023 16.9838Z" fill="#CC6228"/>
<path d="M8.78711 16.8433L11.1649 21.4775L11.0853 19.1753L8.78711 16.8433Z" fill="#E27525"/>
<path fill-rule="evenodd" clip-rule="evenodd" d="M8.7132 16.7412C8.76362 16.7047 8.83312 16.7105 8.8768 16.7549L11.175 19.0869C11.1972 19.1094 11.2101 19.1394 11.2112 19.171L11.2908 21.4732C11.2929 21.5322 11.2537 21.5847 11.1966 21.5995C11.1395 21.6144 11.0797 21.5876 11.0527 21.5351L8.67492 16.9008C8.64651 16.8455 8.66277 16.7777 8.7132 16.7412ZM9.2747 17.5177L11.0194 20.918L10.961 19.2288L9.2747 17.5177Z" fill="#E27525"/>
<path d="M20.9247 19.1753L20.8352 21.4775L23.213 16.8433L20.9247 19.1753Z" fill="#E27525"/>
<path fill-rule="evenodd" clip-rule="evenodd" d="M23.2868 16.7411C23.3373 16.7775 23.3536 16.8454 23.3252 16.9008L20.9474 21.5351C20.9204 21.5877 20.8605 21.6145 20.8033 21.5995C20.7461 21.5845 20.707 21.5317 20.7093 21.4727L20.7988 19.1704C20.8001 19.1391 20.8129 19.1094 20.8348 19.0871L23.1231 16.755C23.1667 16.7106 23.2363 16.7047 23.2868 16.7411ZM21.0488 19.2289L20.9833 20.9129L22.7227 17.523L21.0488 19.2289Z" fill="#E27525"/>
<path d="M14.4581 17.1013L13.9308 20.0089L14.5974 23.4424L14.7466 18.9173L14.4581 17.1013Z" fill="#E27525"/>
<path fill-rule="evenodd" clip-rule="evenodd" d="M14.4596 16.9753C14.521 16.976 14.573 17.0209 14.5826 17.0816L14.8711 18.8976C14.8724 18.9055 14.8729 18.9135 14.8726 18.9215L14.7234 23.4466C14.7212 23.5107 14.6713 23.563 14.6074 23.568C14.5435 23.5731 14.4859 23.5294 14.4737 23.4664L13.8071 20.033C13.8041 20.0176 13.804 20.0019 13.8068 19.9865L14.3342 17.0789C14.3451 17.0184 14.3981 16.9747 14.4596 16.9753ZM14.059 20.0082L14.5083 22.3221L14.6203 18.9252L14.45 17.8528L14.059 20.0082Z" fill="#E27525"/>
<path d="M17.5422 17.1013L17.2635 18.9074L17.4029 23.4424L18.0694 20.0089L17.5422 17.1013Z" fill="#E27525"/>
<path fill-rule="evenodd" clip-rule="evenodd" d="M17.5405 16.9754C17.6021 16.9745 17.6552 17.0183 17.6662 17.0789L18.1935 19.9865C18.1963 20.0019 18.1962 20.0176 18.1932 20.033L17.5266 23.4664C17.5144 23.5294 17.4567 23.5732 17.3928 23.568C17.3288 23.5629 17.2789 23.5104 17.2769 23.4463L17.1376 18.9114C17.1374 18.9036 17.1379 18.8959 17.139 18.8883L17.4177 17.0821C17.427 17.0213 17.479 16.9762 17.5405 16.9754ZM17.5522 17.8629L17.3899 18.9152L17.4942 22.3108L17.9413 20.0082L17.5522 17.8629Z" fill="#E27525"/>
<path d="M18.0694 20.0091L17.4028 23.4426L17.8804 23.78L20.8353 21.4778L20.9248 19.1755L18.0694 20.0091Z" fill="#F5841F"/>
<path fill-rule="evenodd" clip-rule="evenodd" d="M21.0024 19.0762C21.0343 19.1012 21.0523 19.14 21.0508 19.1805L20.9612 21.4827C20.9598 21.5198 20.9421 21.5544 20.9128 21.5772L17.9579 23.8795C17.9141 23.9136 17.8531 23.915 17.8077 23.883L17.3302 23.5455C17.2897 23.5169 17.2697 23.4673 17.2792 23.4186L17.9457 19.9852C17.9547 19.9389 17.9888 19.9014 18.0341 19.8882L20.8895 19.0546C20.9284 19.0433 20.9704 19.0513 21.0024 19.0762ZM18.1785 20.1086L17.5421 23.3867L17.8768 23.6232L20.7117 21.4144L20.7921 19.3456L18.1785 20.1086Z" fill="#F5841F"/>
<path d="M11.0851 19.1755L11.1647 21.4778L14.1195 23.78L14.5971 23.4426L13.9305 20.0091L11.0851 19.1755Z" fill="#F5841F"/>
<path fill-rule="evenodd" clip-rule="evenodd" d="M11.0078 19.076C11.0398 19.0512 11.0817 19.0433 11.1206 19.0546L13.966 19.8882C14.0112 19.9015 14.0453 19.9389 14.0543 19.9852L14.7208 23.4186C14.7303 23.4673 14.7103 23.5169 14.6699 23.5455L14.1923 23.883C14.1469 23.915 14.0859 23.9136 14.0421 23.8795L11.0873 21.5772C11.0579 21.5543 11.0401 21.5195 11.0388 21.4822L10.9592 19.1799C10.9578 19.1395 10.9759 19.1009 11.0078 19.076ZM11.2171 19.3456L11.2887 21.4146L14.1232 23.6232L14.4579 23.3867L13.8215 20.1085L11.2171 19.3456Z" fill="#F5841F"/>
<path d="M18.1291 26.9454L18.1589 26.0027L17.9003 25.7843H14.0998L13.851 26.0027L13.871 26.9454L10.6873 25.437L11.8015 26.35L14.06 27.908H17.9301L20.1985 26.35L21.3028 25.437L18.1291 26.9454Z" fill="#C0AC9D"/>
<path fill-rule="evenodd" clip-rule="evenodd" d="M10.5808 25.3697C10.6149 25.3159 10.6837 25.2959 10.7413 25.3232L13.7407 26.7443L13.7251 26.0054C13.7243 25.9682 13.74 25.9325 13.768 25.908L14.0167 25.6897C14.0397 25.6695 14.0692 25.6584 14.0998 25.6584H17.9003C17.9301 25.6584 17.9589 25.6689 17.9816 25.6881L18.2402 25.9064C18.2697 25.9313 18.2861 25.9682 18.2849 26.0067L18.2616 26.743L21.2487 25.3233C21.3062 25.296 21.3749 25.3157 21.4091 25.3694C21.4433 25.423 21.4321 25.4937 21.3831 25.5342L20.2701 26.4543L18.0015 28.0119C17.9805 28.0263 17.9556 28.034 17.9301 28.034H14.06C14.0344 28.034 14.0095 28.0263 13.9885 28.0117L11.7214 26.4478L10.6074 25.5345C10.5582 25.4942 10.5468 25.4235 10.5808 25.3697ZM11.5624 25.9911L11.8774 26.2492L14.0993 27.782H17.891L20.1225 26.2493L20.4405 25.9864L18.1833 27.0593C18.1436 27.0781 18.0969 27.075 18.0602 27.0509C18.0234 27.0268 18.0018 26.9854 18.0032 26.9415L18.0311 26.0597L17.8543 25.9104H14.1473L13.9783 26.0587L13.997 26.9428C13.9979 26.9864 13.9762 27.0275 13.9395 27.0512C13.9029 27.075 13.8565 27.078 13.817 27.0593L11.5624 25.9911Z" fill="#C0AC9D"/>
<path d="M17.8803 23.7797L17.4027 23.4424H14.5971L14.1196 23.7797L13.851 26.0026L14.0997 25.7843H17.9002L18.1589 26.0026L17.8803 23.7797Z" fill="#161616"/>
<path fill-rule="evenodd" clip-rule="evenodd" d="M14.5244 23.3395C14.5457 23.3245 14.5711 23.3164 14.5971 23.3164H17.4028C17.4288 23.3164 17.4542 23.3245 17.4755 23.3395L17.953 23.6768C17.982 23.6973 18.001 23.729 18.0054 23.7641L18.284 25.987C18.2904 26.0385 18.2647 26.0887 18.219 26.1134C18.1734 26.1382 18.1173 26.1324 18.0777 26.099L17.8542 25.9103H14.1472L13.9341 26.0974C13.8949 26.1318 13.8384 26.1385 13.7922 26.1141C13.746 26.0898 13.7196 26.0394 13.7259 25.9875L13.9945 23.7647C13.9988 23.7293 14.0178 23.6974 14.0469 23.6768L14.5244 23.3395ZM14.6372 23.5684L14.238 23.8504L14.0157 25.6904L14.0166 25.6896C14.0396 25.6694 14.0691 25.6583 14.0997 25.6583H17.9002C17.93 25.6583 17.9588 25.6688 17.9815 25.688L17.9938 25.6984L17.7622 23.8506L17.3627 23.5684H14.6372Z" fill="#161616"/>
<path d="M28.0283 12.0206L28.874 7.91231L27.6005 4.0918L17.8804 11.2863L21.6211 14.4419L26.904 15.9801L28.0681 14.6206L27.5607 14.2533L28.3666 13.5191L27.7498 13.0427L28.5556 12.4275L28.0283 12.0206Z" fill="#763E1A"/>
<path fill-rule="evenodd" clip-rule="evenodd" d="M27.6385 3.97167C27.677 3.98383 27.7073 4.01369 27.7201 4.05199L28.9936 7.8725C29.0006 7.89353 29.0019 7.91604 28.9975 7.93776L28.1676 11.9689L28.6327 12.3277C28.6637 12.3517 28.6818 12.3886 28.6817 12.4278C28.6816 12.467 28.6633 12.5039 28.6321 12.5277L27.9567 13.0433L28.4436 13.4194C28.4731 13.4421 28.491 13.4768 28.4925 13.514C28.494 13.5512 28.479 13.5872 28.4515 13.6123L27.7602 14.2422L28.142 14.5185C28.1706 14.5392 28.1891 14.5708 28.1933 14.6058C28.1974 14.6407 28.1868 14.6758 28.1639 14.7026L26.9998 16.0621C26.9676 16.0997 26.9164 16.1149 26.8689 16.1011L21.5859 14.5629C21.5691 14.558 21.5534 14.5496 21.5399 14.5383L17.7992 11.3827C17.7697 11.3578 17.7532 11.3208 17.7545 11.2823C17.7557 11.2438 17.7745 11.208 17.8054 11.185L27.5256 3.99055C27.558 3.96653 27.6 3.95951 27.6385 3.97167ZM18.0835 11.2928L21.682 14.3284L26.8613 15.8364L27.8835 14.6425L27.4869 14.3555C27.4562 14.3332 27.4371 14.2983 27.435 14.2605C27.4328 14.2226 27.4479 14.1858 27.4759 14.1602L28.1707 13.5271L27.6728 13.1425C27.6418 13.1186 27.6237 13.0816 27.6238 13.0424C27.6239 13.0033 27.6422 12.9664 27.6733 12.9426L28.3487 12.427L27.9513 12.1204C27.9132 12.091 27.8952 12.0424 27.9049 11.9952L28.7438 7.92009L27.5359 4.29646L18.0835 11.2928Z" fill="#763E1A"/>
<path d="M3.12659 7.91304L3.9822 12.0213L3.43501 12.4282L4.25082 13.0435L3.63399 13.5198L4.43985 14.2541L3.93245 14.6213L5.09649 15.9808L10.3794 14.4426L14.1202 11.287L4.40006 4.09253L3.12659 7.91304Z" fill="#763E1A"/>
<path fill-rule="evenodd" clip-rule="evenodd" d="M4.36154 3.97167C4.40003 3.95951 4.44202 3.96653 4.47446 3.99055L14.1946 11.185C14.2256 11.208 14.2444 11.2438 14.2456 11.2823C14.2468 11.3208 14.2303 11.3578 14.2009 11.3827L10.4601 14.5383C10.4467 14.5496 10.431 14.558 10.4141 14.5629L5.13115 16.1011C5.08362 16.1149 5.03239 16.0997 5.0002 16.0621L3.83616 14.7026C3.81326 14.6758 3.80259 14.6407 3.80674 14.6057C3.81089 14.5708 3.82948 14.5392 3.858 14.5185L4.23986 14.2422L3.54854 13.6123C3.52101 13.5872 3.50599 13.5512 3.5075 13.514C3.50902 13.4768 3.52692 13.4421 3.55639 13.4194L4.04254 13.0439L3.35856 12.5281C3.32687 12.5042 3.30829 12.4668 3.30842 12.4271C3.30856 12.3874 3.32739 12.3501 3.35924 12.3264L3.84185 11.9675L3.00265 7.93804C2.99811 7.91624 2.99942 7.89363 3.00647 7.8725L4.27994 4.05199C4.2927 4.01369 4.32304 3.98383 4.36154 3.97167ZM4.46412 4.29646L3.25632 7.91994L4.105 11.9949C4.11501 12.043 4.09621 12.0925 4.05683 12.1217L3.64467 12.4282L4.32613 12.9422C4.3575 12.9658 4.37605 13.0027 4.37627 13.042C4.37649 13.0813 4.35838 13.1185 4.32728 13.1425L3.82927 13.5271L4.52416 14.1602C4.55219 14.1858 4.56723 14.2226 4.5651 14.2605C4.56297 14.2983 4.54389 14.3332 4.51317 14.3555L4.11655 14.6425L5.13876 15.8364L10.318 14.3284L13.9165 11.2928L4.46412 4.29646Z" fill="#763E1A"/>
<path d="M26.9041 15.98L21.6212 14.4419L23.213 16.8434L20.8352 21.4776L23.9791 21.4379H28.675L26.9041 15.98Z" fill="#F5841F"/>
<path fill-rule="evenodd" clip-rule="evenodd" d="M21.5197 14.3673C21.5511 14.3247 21.6057 14.3062 21.6564 14.3209L26.9394 15.859C26.9794 15.8707 27.0111 15.9014 27.024 15.9411L28.7949 21.399C28.8073 21.4374 28.8007 21.4794 28.777 21.512C28.7533 21.5447 28.7154 21.564 28.675 21.564H23.9799L20.8368 21.6036C20.7926 21.6042 20.7514 21.5815 20.7281 21.544C20.7048 21.5064 20.703 21.4594 20.7231 21.4201L23.0673 16.8515L21.5162 14.5116C21.487 14.4675 21.4884 14.4099 21.5197 14.3673ZM21.9164 14.6591L23.3181 16.7738C23.3433 16.8118 23.346 16.8604 23.3252 16.901L21.0429 21.349L23.9791 21.3119L28.5017 21.3119L26.8049 16.0824L21.9164 14.6591Z" fill="#F5841F"/>
<path d="M10.3787 14.4419L5.09581 15.98L3.33484 21.4379H8.02081L11.1647 21.4776L8.78688 16.8434L10.3787 14.4419Z" fill="#F5841F"/>
<path fill-rule="evenodd" clip-rule="evenodd" d="M10.4802 14.3673C10.5116 14.4099 10.513 14.4675 10.4838 14.5116L8.93273 16.8515L11.2768 21.4201C11.297 21.4594 11.2951 21.5064 11.2718 21.544C11.2486 21.5815 11.2073 21.6042 11.1631 21.6036L8.02006 21.564H3.33488C3.29459 21.564 3.25672 21.5447 3.23301 21.5121C3.20929 21.4795 3.20258 21.4376 3.21495 21.3992L4.97592 15.9413C4.98876 15.9016 5.02049 15.8707 5.06062 15.859L10.3435 14.3209C10.3943 14.3062 10.4489 14.3247 10.4802 14.3673ZM5.19525 16.0823L3.50795 21.3119H8.02244L10.9571 21.349L8.67481 16.901C8.654 16.8604 8.65671 16.8118 8.68189 16.7738L10.0836 14.6591L5.19525 16.0823Z" fill="#F5841F"/>
<path d="M17.542 17.1014L17.8803 11.2862L19.4124 7.14819H12.5874L14.1195 11.2862L14.4578 17.1014L14.5871 18.9273L14.5971 23.4424H17.4027L17.4127 18.9273L17.542 17.1014Z" fill="#F5841F"/>
<path fill-rule="evenodd" clip-rule="evenodd" d="M12.484 7.07624C12.5076 7.04239 12.5462 7.02222 12.5874 7.02222H19.4124C19.4537 7.02222 19.4923 7.04239 19.5159 7.07624C19.5394 7.11009 19.5449 7.15332 19.5306 7.19199L18.005 11.3124L17.6678 17.1103L17.5387 18.9319L17.5288 23.4428C17.5286 23.5122 17.4722 23.5685 17.4027 23.5685H14.5971C14.5276 23.5685 14.4713 23.5122 14.4711 23.4428L14.4612 18.9319L14.3321 17.1103L14.332 17.1087L13.9948 11.3124L12.4693 7.19199C12.4549 7.15332 12.4605 7.11009 12.484 7.07624ZM12.7685 7.27425L14.2377 11.2425C14.2421 11.2542 14.2446 11.2665 14.2454 11.2789L14.5835 17.0925L14.5836 17.0941L14.7135 18.927L14.7229 23.3165H17.277L17.2867 18.9184L17.4162 17.0941L17.4163 17.0925L17.7545 11.2789C17.7552 11.2665 17.7578 11.2542 17.7621 11.2425L19.2314 7.27425H12.7685Z" fill="#F5841F"/>
</svg>
