<svg width="20" height="20" viewBox="0 0 20 20" fill="none" xmlns="http://www.w3.org/2000/svg">
<path d="M14.3399 7.11387C14.0315 6.93763 13.635 6.93763 13.2825 7.11387L10.8151 8.56785L9.14083 9.49311L6.71753 10.9471C6.40911 11.1233 6.01257 11.1233 5.66009 10.9471L3.7655 9.80153C3.45708 9.62529 3.23678 9.27281 3.23678 8.87627V6.67327C3.23678 6.32079 3.41302 5.96831 3.7655 5.74801L5.66009 4.64651C5.96851 4.47027 6.36505 4.47027 6.71753 4.64651L8.61211 5.79207C8.92053 5.96831 9.14083 6.32079 9.14083 6.71733V8.17131L10.8151 7.20199V5.70395C10.8151 5.35147 10.6389 4.99899 10.2864 4.77869L6.76159 2.70786C6.45317 2.53162 6.05663 2.53162 5.70414 2.70786L2.09122 4.82275C1.73874 4.99899 1.5625 5.35147 1.5625 5.70395V9.84559C1.5625 10.1981 1.73874 10.5506 2.09122 10.7709L5.66009 12.8417C5.96851 13.0179 6.36505 13.0179 6.71753 12.8417L9.14083 11.4318L10.8151 10.4624L13.2384 9.05251C13.5468 8.87627 13.9434 8.87627 14.2959 9.05251L16.1904 10.154C16.4989 10.3303 16.7192 10.6827 16.7192 11.0793V13.2823C16.7192 13.6348 16.5429 13.9872 16.1904 14.2075L14.3399 15.309C14.0315 15.4853 13.635 15.4853 13.2825 15.309L11.3879 14.2075C11.0795 14.0313 10.8592 13.6788 10.8592 13.2823V11.8724L9.18489 12.8417V14.2957C9.18489 14.6481 9.36113 15.0006 9.71361 15.2209L13.2825 17.2917C13.5909 17.468 13.9874 17.468 14.3399 17.2917L17.9088 15.2209C18.2172 15.0447 18.4375 14.6922 18.4375 14.2957V10.11C18.4375 9.75747 18.2613 9.40499 17.9088 9.18469L14.3399 7.11387Z" fill="#8247E5"/>
</svg>
