<svg width="13" height="14" viewBox="0 0 13 14" fill="none" xmlns="http://www.w3.org/2000/svg">
<path opacity="0.3" d="M6.5 13.5C10.0899 13.5 13 10.5899 13 7C13 3.41015 10.0899 0.5 6.5 0.5C2.91015 0.5 0 3.41015 0 7C0 10.5899 2.91015 13.5 6.5 13.5Z" fill="#6678A9"/>
<path d="M5.86421 7.77263C5.86421 7.60421 5.88667 7.46105 5.93158 7.34316C5.97649 7.22526 6.05228 7.11579 6.15895 7.01474C6.31614 6.86316 6.4593 6.73123 6.58842 6.61895C6.72316 6.50667 6.83825 6.40281 6.93368 6.30737C7.02912 6.20632 7.10211 6.11368 7.15263 6.02947C7.20877 5.93965 7.23684 5.84702 7.23684 5.75158C7.23684 5.56632 7.17789 5.42316 7.06 5.32211C6.94772 5.21544 6.80456 5.16211 6.63053 5.16211C6.36667 5.16211 6.16456 5.23509 6.02421 5.38105C5.88947 5.52702 5.81368 5.70386 5.79684 5.91158L4.5 5.82737C4.56175 5.23228 4.7807 4.78035 5.15684 4.47158C5.53298 4.15719 6.01579 4 6.60526 4C6.86351 4 7.10491 4.03649 7.32947 4.10947C7.55965 4.17684 7.76175 4.2807 7.93579 4.42105C8.10982 4.5614 8.24737 4.73544 8.34842 4.94316C8.44947 5.15088 8.5 5.38947 8.5 5.65895C8.5 5.82175 8.48316 5.97053 8.44947 6.10526C8.41579 6.23439 8.35684 6.36351 8.27263 6.49263C8.19404 6.62175 8.08737 6.75368 7.95263 6.88842C7.82351 7.01754 7.65789 7.1607 7.45579 7.31789C7.32667 7.41895 7.23965 7.51719 7.19474 7.61263C7.14982 7.70807 7.12737 7.80351 7.12737 7.89895V8.14316H5.86421V7.77263ZM5.72105 9.38947C5.72105 9.28281 5.7407 9.18176 5.78 9.08632C5.8193 8.99088 5.87263 8.90947 5.94 8.84211C6.01298 8.76912 6.09719 8.71298 6.19263 8.67368C6.28807 8.63439 6.38912 8.61474 6.49579 8.61474C6.60246 8.61474 6.70351 8.63439 6.79895 8.67368C6.89439 8.71298 6.97579 8.76912 7.04316 8.84211C7.11614 8.90947 7.17228 8.99088 7.21158 9.08632C7.25088 9.18176 7.27053 9.28281 7.27053 9.38947C7.27053 9.49614 7.25088 9.59719 7.21158 9.69263C7.17228 9.78807 7.11614 9.87228 7.04316 9.94526C6.97579 10.0126 6.89439 10.066 6.79895 10.1053C6.70351 10.1446 6.60246 10.1642 6.49579 10.1642C6.38912 10.1642 6.28807 10.1446 6.19263 10.1053C6.09719 10.066 6.01298 10.0126 5.94 9.94526C5.87263 9.87228 5.8193 9.78807 5.78 9.69263C5.7407 9.59719 5.72105 9.49614 5.72105 9.38947Z" fill="white"/>
</svg>
