<svg width="32" height="32" viewBox="0 0 32 32" fill="none" xmlns="http://www.w3.org/2000/svg">
<rect x="3" y="3" width="25" height="25" rx="8" fill="white"/>
<path fill-rule="evenodd" clip-rule="evenodd" d="M14.9527 8.08247C15.3155 7.77948 15.8431 7.77948 16.2059 8.08247C18.1907 9.74005 20.4543 9.72806 21.3538 9.7233C21.398 9.72306 21.4389 9.72285 21.4763 9.72285C21.7381 9.72285 21.989 9.82787 22.1727 10.0144C22.3565 10.2009 22.4577 10.4533 22.4538 10.7151C22.4109 13.553 22.2972 15.5897 22.0718 17.0888C21.8465 18.5867 21.4973 19.6433 20.9166 20.4505C20.3307 21.2647 19.5791 21.7223 18.8162 22.1439C18.6828 22.2177 18.5473 22.2911 18.4092 22.3661C17.7435 22.7272 17.016 23.1219 16.1491 23.7438C15.8085 23.9881 15.3501 23.9881 15.0095 23.7438C14.1434 23.1225 13.4169 22.728 12.7522 22.3671C12.6135 22.2918 12.4774 22.2179 12.3433 22.1437C11.581 21.722 10.8303 21.2642 10.2455 20.4496C9.66601 19.6424 9.31803 18.5858 9.09365 17.0883C8.86907 15.5894 8.75583 13.5529 8.713 10.7151C8.70905 10.4533 8.81028 10.2009 8.99401 10.0144C9.17774 9.82787 9.42861 9.72285 9.69043 9.72285C9.72744 9.72285 9.76797 9.72306 9.8118 9.7233C10.7039 9.72807 12.9678 9.74017 14.9527 8.08247ZM15.5793 10.0601C13.7624 11.3176 11.8642 11.6027 10.6862 11.664C10.7388 13.9624 10.8474 15.5992 11.0271 16.7986C11.2316 18.163 11.5155 18.8661 11.8337 19.3095C12.1467 19.7454 12.5597 20.0291 13.2897 20.433C13.4074 20.4981 13.5321 20.5657 13.6637 20.637C14.1982 20.9268 14.8441 21.277 15.5793 21.7628C16.3156 21.2764 16.9626 20.9259 17.4981 20.6358C17.629 20.5649 17.7533 20.4976 17.8706 20.4327C18.6016 20.0287 19.0156 19.7449 19.3296 19.3086C19.6486 18.8652 19.9333 18.1622 20.1384 16.7981C20.3187 15.5989 20.4279 13.9624 20.4805 11.6642C19.2999 11.6035 17.3987 11.3193 15.5793 10.0601Z" fill="#3375BB"/>
</svg>
