<svg width="32" height="32" viewBox="0 0 32 32" fill="none" xmlns="http://www.w3.org/2000/svg">
<path d="M7.73017 10.353C12.2961 5.88232 19.699 5.88232 24.265 10.353L24.8148 10.8907C25.0435 11.1139 25.0435 11.477 24.8148 11.7001L22.9347 13.5411C22.8208 13.6531 22.635 13.6531 22.5211 13.5411L21.7649 12.8008C18.5797 9.68182 13.4154 9.68182 10.2292 12.8008L9.41893 13.5933C9.30504 13.7054 9.11927 13.7054 9.00538 13.5933L7.1271 11.7524C6.89839 11.5293 6.89839 11.1661 7.1271 10.943L7.73017 10.353ZM28.1531 14.1591L29.826 15.7974C30.0547 16.0205 30.0547 16.3837 29.826 16.6068L22.2821 23.9929C22.0534 24.2161 21.6837 24.2161 21.455 23.9929L16.1012 18.7511C16.0442 18.6951 15.9518 18.6951 15.8949 18.7511L10.5401 23.9929C10.3114 24.2161 9.94171 24.2161 9.713 23.9929L2.1691 16.6068C1.94038 16.3837 1.94038 16.0205 2.1691 15.7974L3.84199 14.1591C4.07071 13.9359 4.44039 13.9359 4.6691 14.1591L10.0229 19.4018C10.0799 19.4578 10.1723 19.4578 10.2292 19.4018L15.5831 14.1591C15.8118 13.9359 16.1815 13.9359 16.4102 14.1591L21.764 19.4018C21.821 19.4578 21.9134 19.4578 21.9703 19.4018L27.3241 14.16C27.5547 13.9359 27.9244 13.9359 28.1531 14.1591Z" fill="#3B99FC"/>
</svg>
