<svg width="16" height="16" viewBox="0 0 16 16" fill="none" xmlns="http://www.w3.org/2000/svg">
<path opacity="0.3" d="M8.00009 14.5C11.5899 14.5 14.5001 11.5899 14.5001 8C14.5001 4.41015 11.5899 1.5 8.00009 1.5C4.41024 1.5 1.50009 4.41015 1.50009 8C1.50009 11.5899 4.41024 14.5 8.00009 14.5Z" fill="#FFB110"/>
<path d="M7.36421 8.77263C7.36421 8.60421 7.38667 8.46105 7.43158 8.34316C7.47649 8.22526 7.55228 8.11579 7.65895 8.01474C7.81614 7.86316 7.9593 7.73123 8.08842 7.61895C8.22316 7.50667 8.33825 7.40281 8.43368 7.30737C8.52912 7.20632 8.60211 7.11368 8.65263 7.02947C8.70877 6.93965 8.73684 6.84702 8.73684 6.75158C8.73684 6.56632 8.67789 6.42316 8.56 6.32211C8.44772 6.21544 8.30456 6.16211 8.13053 6.16211C7.86667 6.16211 7.66456 6.23509 7.52421 6.38105C7.38947 6.52702 7.31368 6.70386 7.29684 6.91158L6 6.82737C6.06175 6.23228 6.2807 5.78035 6.65684 5.47158C7.03298 5.15719 7.51579 5 8.10526 5C8.36351 5 8.60491 5.03649 8.82947 5.10947C9.05965 5.17684 9.26175 5.2807 9.43579 5.42105C9.60982 5.5614 9.74737 5.73544 9.84842 5.94316C9.94947 6.15088 10 6.38947 10 6.65895C10 6.82175 9.98316 6.97053 9.94947 7.10526C9.91579 7.23439 9.85684 7.36351 9.77263 7.49263C9.69404 7.62175 9.58737 7.75368 9.45263 7.88842C9.32351 8.01754 9.15789 8.1607 8.95579 8.31789C8.82667 8.41895 8.73965 8.51719 8.69474 8.61263C8.64982 8.70807 8.62737 8.80351 8.62737 8.89895V9.14316H7.36421V8.77263ZM7.22105 10.3895C7.22105 10.2828 7.2407 10.1818 7.28 10.0863C7.3193 9.99088 7.37263 9.90947 7.44 9.84211C7.51298 9.76912 7.59719 9.71298 7.69263 9.67368C7.78807 9.63439 7.88912 9.61474 7.99579 9.61474C8.10246 9.61474 8.20351 9.63439 8.29895 9.67368C8.39439 9.71298 8.47579 9.76912 8.54316 9.84211C8.61614 9.90947 8.67228 9.99088 8.71158 10.0863C8.75088 10.1818 8.77053 10.2828 8.77053 10.3895C8.77053 10.4961 8.75088 10.5972 8.71158 10.6926C8.67228 10.7881 8.61614 10.8723 8.54316 10.9453C8.47579 11.0126 8.39439 11.066 8.29895 11.1053C8.20351 11.1446 8.10246 11.1642 7.99579 11.1642C7.88912 11.1642 7.78807 11.1446 7.69263 11.1053C7.59719 11.066 7.51298 11.0126 7.44 10.9453C7.37263 10.8723 7.3193 10.7881 7.28 10.6926C7.2407 10.5972 7.22105 10.4961 7.22105 10.3895Z" fill="#FFB110"/>
</svg>
